<?xml version="1.0" encoding="UTF-8" standalone="no"?>
<!-- Created with Inkscape (http://www.inkscape.org/) -->

<svg width="48px" height="48px" id="svg2816" version="1.1" xmlns="http://www.w3.org/2000/svg" xmlns:svg="http://www.w3.org/2000/svg" xmlns:rdf="http://www.w3.org/1999/02/22-rdf-syntax-ns#" xmlns:cc="http://creativecommons.org/ns#" xmlns:dc="http://purl.org/dc/elements/1.1/">
 <defs id="defs2818" />
 <metadata id="metadata2821">
  <rdf:RDF>
   <cc:Work rdf:about="">
    <dc:format>image/svg+xml</dc:format>
    <dc:type rdf:resource="http://purl.org/dc/dcmitype/StillImage" />
   </cc:Work>
  </rdf:RDF>
 </metadata>
 <g id="layer1" style="display:inline">
  <path id="path486" style="color:#000000;fill:#ececec;stroke:#1a1a1a;stroke-opacity:1;stroke-width:3;stroke-dasharray:none;paint-order:markers stroke fill;stroke-linejoin:round" d="M 9.5 6 C 7.2967877 6 5.5 7.7967877 5.5 10 C 5.5 12.203213 7.2967877 14 9.5 14 C 11.703212 14 13.5 12.203213 13.5 10 C 13.5 7.7967877 11.703212 6 9.5 6 z M 17.886719 6.9257812 C 17.602632 6.9252365 16.951469 6.961929 16.289062 7.2695312 C 15.405852 7.6796708 14.5 8.6652723 14.5 10.427734 C 14.5 12.094398 15.416916 13.04119 16.292969 13.4375 C 16.3984 13.485195 16.504069 13.524881 16.607422 13.560547 L 18.849609 16.271484 L 15.697266 19.386719 C 15.144035 19.298582 14.57768 19.25 14 19.25 C 8.0718341 19.25 3.25 24.071835 3.25 30 C 3.25 35.928165 8.0718341 40.75 14 40.75 C 19.928165 40.75 24.75 35.928165 24.75 30 C 24.75 25.836571 22.369975 22.22245 18.900391 20.4375 L 22.914062 16.472656 L 20.734375 13.839844 L 25.193359 13.931641 L 25.341797 13.794922 L 32.541016 7.0839844 L 18.005859 6.9277344 L 18.035156 6.9296875 C 18.035156 6.9296875 17.981414 6.9259628 17.886719 6.9257812 z M 33.189453 9.6894531 L 21.957031 20.921875 L 28.861328 28.976562 A 1.5 1.5 0 0 0 30.326172 29.351562 L 30.357422 33.867188 A 1.5 1.5 0 0 0 31.867188 35.357422 A 1.5 1.5 0 0 0 33.357422 33.847656 L 33.189453 9.6894531 z M 30.240234 16.880859 L 30.302734 26.048828 L 26.042969 21.078125 L 30.240234 16.880859 z M 46 19.25 C 40.071834 19.25 35.25 24.071835 35.25 30 C 35.25 35.928165 40.071834 40.75 46 40.75 L 46 39.25 C 40.882492 39.25 36.75 35.117507 36.75 30 C 36.75 24.882493 40.882492 20.75 46 20.75 L 46 19.25 z M 14 20.75 C 14.104213 20.75 14.207177 20.754412 14.310547 20.757812 L 13.828125 21.234375 A 1.5 1.5 0 0 0 13.814453 23.355469 A 1.5 1.5 0 0 0 15.935547 23.367188 L 17.773438 21.552734 C 21.00309 22.994145 23.25 26.22814 23.25 30 C 23.25 35.117507 19.117507 39.25 14 39.25 C 8.8824927 39.25 4.75 35.117507 4.75 30 C 4.75 24.882493 8.8824927 20.75 14 20.75 z " />
 </g>
</svg>
