<?xml version="1.0" encoding="UTF-8" standalone="no"?>
<!-- Created with Inkscape (http://www.inkscape.org/) -->

<svg width="48" height="48" id="svg2816" version="1.1" xmlns="http://www.w3.org/2000/svg" xmlns:svg="http://www.w3.org/2000/svg" xmlns:rdf="http://www.w3.org/1999/02/22-rdf-syntax-ns#" xmlns:cc="http://creativecommons.org/ns#" xmlns:dc="http://purl.org/dc/elements/1.1/">
 <defs id="defs2818" />
 <metadata id="metadata2821">
  <rdf:RDF>
   <cc:Work rdf:about="">
    <dc:format>image/svg+xml</dc:format>
    <dc:type rdf:resource="http://purl.org/dc/dcmitype/StillImage" />
   </cc:Work>
  </rdf:RDF>
 </metadata>
 <g id="g950">
  <path style="color:#000000;fill:#1a1a1a;stroke-linejoin:round;-inkscape-stroke:none;paint-order:markers stroke fill" d="m 8.875004,5.125006 c -3.01874,0 -5.5,2.481259 -5.5,5.5 0,3.018741 2.48126,5.5 5.5,5.5 1.798279,0 3.328077,-0.936993 4.333984,-2.287109 0.502221,0.744655 1.170331,1.288921 1.839844,1.591797 0.0079,0.0036 0.0137,0.0043 0.02148,0.0078 l 1.123046,1.357422 -1.691406,1.671875 c -0.374408,-0.0356 -0.740846,-0.0918 -1.126953,-0.0918 -6.741536,0 -12.25,5.508465 -12.25,12.25 0,6.741536 5.508464,12.25 12.25,12.25 6.741536,0 12.25,-5.508464 12.25,-12.25 0,-0.732732 -0.176444,-1.415167 -0.300781,-2.113281 l 1.771484,2.066406 c 0.02735,0.03179 0.05602,0.06241 0.08594,0.0918 0.289443,0.28569 0.660551,0.43405 1.027343,0.580078 l 0.02344,3.251953 c 0.01064,1.639099 1.380433,2.991175 3.019531,2.980469 1.40972,-0.01007 2.436634,-1.100646 2.736328,-2.427734 1.786872,4.560028 6.210177,7.820312 11.386717,7.820312 0.82839,-8.3e-5 1.49992,-0.671607 1.5,-1.5 v -1.5 c -8e-5,-0.828393 -0.67161,-1.499917 -1.5,-1.5 -4.30998,0 -7.749998,-3.440018 -7.749998,-7.75 0,-4.309982 3.440018,-7.75 7.749998,-7.75 0.82839,-8.3e-5 1.49992,-0.671607 1.5,-1.5 v -1.5 c -8e-5,-0.828393 -0.67161,-1.499917 -1.5,-1.5 -5.004672,0 -9.308657,3.050721 -11.205076,7.373047 L 34.062504,10.304694 C 33.970234,9.613079 33.413309,9.076389 32.718754,9.009772 l 0.21875,-0.203125 C 33.928216,7.883625 33.285621,6.224107 31.931645,6.20899 l -14.535157,-0.15625 -0.002,0.002 c -0.04613,-0.0019 -0.06133,-0.0038 -0.130859,-0.0039 -0.417641,-8e-4 -1.270762,0.03781 -2.232422,0.484375 -0.557264,0.258808 -1.054628,0.779921 -1.505812,1.34571 C 12.56255,6.267805 10.875103,5.125066 8.875004,5.125066 Z m 2.535156,18.142578 c 0.07725,0.636558 0.232558,1.282909 0.710938,1.767578 h 0.002 c 1.151911,1.164499 3.074685,1.175801 4.240234,0.02539 l 0.002,-0.002 1.001954,-0.988281 c 2.226514,1.356149 3.757812,3.733834 3.757812,6.554687 0,4.309982 -3.440018,7.75 -7.75,7.75 -4.309982,0 -7.75,-3.440018 -7.75,-7.75 0,-3.611113 2.467046,-6.479331 5.785156,-7.357422 z" id="path965" />
  <path style="color:#000000;fill:#ececec;stroke-width:3;stroke-linejoin:round;-inkscape-stroke:none;paint-order:markers stroke fill" d="m 8.875,6.625 c -2.20321,0 -4,1.796787 -4,4 0,2.203213 1.79679,4 4,4 2.203209,0 4,-1.796787 4,-4 0,-2.203213 -1.796791,-4 -4,-4 z m 8.38672,0.925781 c -0.28409,-5.45e-4 -0.93525,0.03615 -1.59766,0.34375 -0.88321,0.41014 -1.78906,1.395741 -1.78906,3.158203 0,1.666664 0.91692,2.613456 1.79297,3.009766 0.10543,0.04769 0.2111,0.08738 0.31445,0.123047 l 2.242189,2.710937 -3.152339,3.115235 C 14.51904,19.923579 13.95268,19.875 13.375,19.875 c -5.92817,0 -10.75,4.821835 -10.75,10.75 0,5.928165 4.82183,10.75 10.75,10.75 5.928169,0 10.749999,-4.821835 10.749999,-10.75 0,-4.163429 -2.38002,-7.77755 -5.84961,-9.5625 l 4.013671,-3.964844 -2.179681,-2.632812 4.45898,0.0918 0.148441,-0.136719 7.19922,-6.710938 -14.53516,-0.15625 0.0293,0.002 c 0,0 -0.0537,-0.0037 -0.14844,-0.0039 z m 15.302729,2.763672 -11.232419,11.232422 6.904299,8.054687 c 0.384956,0.379964 0.944662,0.523249 1.464841,0.375 l 0.0312,4.515626 c 0.0054,0.828436 0.681334,1.495647 1.50977,1.490234 0.828432,-0.0054 1.495641,-0.681333 1.49023,-1.509766 z m -2.949209,7.191406 0.0625,9.167969 -4.25977,-4.970703 z M 45.375,19.875 c -5.928161,0 -10.75,4.821835 -10.75,10.75 0,5.928165 4.82184,10.75 10.75,10.75 v -1.5 c -5.117511,0 -9.25,-4.132493 -9.25,-9.25 0,-5.117507 4.132489,-9.25 9.25,-9.25 z m -32,1.5 c 0.104209,0 0.20718,0.0044 0.310549,0.0078 l -0.48242,0.476563 c -0.589436,0.581971 -0.595569,1.531558 -0.0137,2.121094 0.582519,0.588882 1.5321,0.594129 2.121091,0.01172 l 1.83789,-1.814454 c 3.22965,1.441422 5.47656,4.675417 5.47656,8.447277 0,5.117507 -4.13249,9.25 -9.250001,9.25 -5.11751,0 -9.249999,-4.132493 -9.249999,-9.25 0,-5.117507 4.132489,-9.25 9.249999,-9.25 z" id="path967" />
 </g>
</svg>
